<svg width="252" height="31" viewBox="0 0 252 31" fill="none" xmlns="http://www.w3.org/2000/svg">
<path d="M17.1641 16.7893C16.3357 14.6131 15.5347 12.5427 14.7611 10.578C14.0114 8.60303 13.2309 6.48483 12.3991 4.31545L7.54165 16.7893H17.1641ZM12.3991 1L23.7879 29.2939L22.5043 29.6521L17.729 18.0275H7.06925L2.25287 29.7237L1 29.3758L12.3991 1ZM46.1959 28.3525V29.6521H28.1319V1.40932H29.4259V28.3525H46.1959ZM50.8993 2.68843V17.0145H57.1329C58.0392 17.0176 58.9369 16.8379 59.7717 16.4861C60.6065 16.1344 61.3612 15.618 61.9904 14.9679C62.6216 14.3034 63.1324 13.5347 63.5 12.6962C63.8736 11.8159 64.0623 10.8686 64.0545 9.91284C64.048 8.95975 63.8526 8.01733 63.4794 7.13973C63.1292 6.29492 62.6164 5.52664 61.9698 4.87826C61.3436 4.1988 60.5808 3.65838 59.7311 3.29217C58.8991 2.89021 57.9856 2.68367 57.061 2.68843H50.8993ZM49.5438 29.6521V1.40932H57.061C58.1731 1.40127 59.2736 1.63525 60.2856 2.09492C61.2685 2.51385 62.1585 3.12246 62.9043 3.88567C63.6562 4.66921 64.2552 5.58529 64.6707 6.58716C65.128 7.6293 65.3623 8.75497 65.3587 9.89238C65.3655 11.0227 65.1456 12.143 64.7118 13.1874C64.2962 14.1892 63.6973 15.1053 62.9454 15.8888C62.1874 16.6401 61.3005 17.2501 60.3267 17.6898C59.3207 18.1176 58.2369 18.3336 57.1432 18.3243H50.8993V29.6521H49.5438ZM89.9233 13.9958H70.8221V29.6521H69.5281V1.40932H70.8221V12.6655H89.9233V1.40932H91.2583V29.6521H89.9233V13.9958ZM111.9 16.7893C111.065 14.6131 110.26 12.5427 109.487 10.578C108.713 8.61327 107.926 6.52576 107.125 4.31545L102.247 16.7893H111.9ZM107.114 1L118.503 29.2735L117.22 29.6214L112.444 18.0071H101.785L96.9681 29.7237L95.7255 29.3758L107.114 1ZM133.815 1.55258L136.896 8.92025C137.348 7.89697 137.769 6.87368 138.138 6.01411C138.508 5.15455 138.847 4.35639 139.165 3.70148C139.484 3.04658 139.782 2.26888 140.069 1.6549L141.23 2.12562L137.666 10.4757C138.868 13.2795 140.049 15.9912 141.188 18.662C142.328 21.3327 143.509 23.9728 144.721 26.8483C145.029 26.1013 145.43 25.1803 145.923 24.0649C146.416 22.9495 146.95 21.6807 147.514 20.3402L149.363 16.0935L151.211 11.7241C152.615 8.33357 154.135 4.75888 155.771 1L156.973 1.51164L144.649 30L136.865 12.0515C135.598 14.9986 134.308 17.9968 132.993 21.0462C131.679 24.0956 130.402 27.0802 129.163 30L116.84 1.51164L118.062 1L129.194 26.7869C129.543 25.9887 129.984 24.9757 130.529 23.717C131.073 22.4584 131.658 21.1486 132.295 19.6852L134.226 15.1111C134.91 13.5012 135.595 11.9424 136.28 10.4347L134.431 6.23924C133.825 4.78617 133.24 3.3638 132.665 1.99259L133.815 1.55258ZM174.667 1.13303C176.59 1.11884 178.495 1.51303 180.253 2.28934C183.703 3.76149 186.445 6.50878 187.904 9.95378C188.679 11.7077 189.074 13.6043 189.065 15.5205C189.072 17.4529 188.677 19.3658 187.904 21.1383C187.178 22.8473 186.133 24.403 184.823 25.7227C183.506 27.0167 181.96 28.0575 180.264 28.7925C178.498 29.5412 176.596 29.9208 174.677 29.9079C172.73 29.9316 170.798 29.5626 168.998 28.8232C167.292 28.0836 165.733 27.0437 164.397 25.7534C163.101 24.4232 162.057 22.87 161.317 21.169C160.568 19.3906 160.187 17.4798 160.197 15.5512C160.184 13.6388 160.565 11.7442 161.317 9.98447C162.042 8.27541 163.088 6.71961 164.397 5.40014C165.717 4.08948 167.279 3.04686 168.998 2.33028C170.778 1.54994 172.702 1.1491 174.646 1.15349L174.667 1.13303ZM187.781 15.5205C187.795 13.7628 187.446 12.021 186.754 10.404C186.098 8.85412 185.15 7.44385 183.961 6.24947C182.119 4.40505 179.767 3.1508 177.205 2.64759C174.644 2.14438 171.99 2.41516 169.584 3.42519C166.422 4.74791 163.907 7.25367 162.58 10.404C161.888 12.0209 161.538 13.7627 161.553 15.5205C161.538 17.2782 161.888 19.02 162.58 20.6369C163.243 22.1983 164.19 23.6241 165.373 24.8426C166.592 26.0214 168.02 26.9651 169.584 27.626C171.21 28.3054 172.955 28.6553 174.718 28.6553C176.481 28.6553 178.227 28.3054 179.853 27.626C181.407 26.9692 182.822 26.0247 184.022 24.8426C185.206 23.6241 186.153 22.1983 186.816 20.6369C187.477 19.0204 187.798 17.2861 187.76 15.5409L187.781 15.5205ZM208.32 1.13303C210.247 1.11895 212.154 1.5131 213.917 2.28934C215.624 2.99972 217.171 4.04353 218.466 5.35921C219.792 6.66571 220.839 8.22482 221.547 9.94354C222.321 11.6975 222.717 13.5941 222.707 15.5102C222.715 17.4426 222.319 19.3555 221.547 21.1281C220.824 22.8387 219.778 24.395 218.466 25.7124C217.154 27.0086 215.612 28.0497 213.917 28.7823C212.147 29.5309 210.242 29.9105 208.32 29.8977C206.374 29.912 204.446 29.5325 202.651 28.7823C200.945 28.0427 199.387 27.0028 198.05 25.7124C196.758 24.379 195.715 22.8266 194.97 21.1281C194.225 19.3484 193.844 17.4384 193.85 15.5102C193.842 13.5984 194.223 11.7047 194.97 9.94354C195.7 8.23683 196.745 6.6818 198.05 5.35921C199.37 4.04855 200.932 3.00593 202.651 2.28934C204.424 1.52667 206.337 1.13986 208.269 1.15349L208.32 1.13303ZM221.372 15.5409C221.387 13.7832 221.038 12.0414 220.345 10.4245C219.689 8.87458 218.741 7.46431 217.552 6.26994C215.711 4.42551 213.358 3.17126 210.797 2.66805C208.235 2.16485 205.581 2.43562 203.175 3.44566C201.603 4.11013 200.174 5.06888 198.964 6.26994C197.772 7.46154 196.824 8.87251 196.171 10.4245C195.481 12.0426 195.125 13.7827 195.125 15.5409C195.125 17.2991 195.481 19.0393 196.171 20.6574C196.831 22.2208 197.778 23.6473 198.964 24.8631C200.184 26.0419 201.611 26.9856 203.175 27.6464C204.801 28.3275 206.546 28.6783 208.31 28.6783C210.073 28.6783 211.819 28.3275 213.444 27.6464C215.003 26.9928 216.422 26.048 217.624 24.8631C218.784 23.6326 219.706 22.2 220.345 20.6369C221.035 19.0264 221.384 17.2918 221.372 15.5409ZM236.91 1.40932C238.803 1.39529 240.678 1.77519 242.415 2.5247C244.097 3.24097 245.619 4.28464 246.892 5.59457C249.519 8.25652 250.994 11.8385 251 15.5716C251.009 17.4571 250.628 19.3242 249.88 21.0565C249.182 22.7387 248.16 24.2683 246.872 25.5589C245.581 26.8288 244.062 27.8458 242.394 28.5572C240.66 29.2921 238.794 29.6647 236.91 29.6521H228.407V1.40932H236.91ZM249.767 15.5409C249.783 13.8327 249.432 12.1409 248.741 10.578C248.102 9.04651 247.167 7.65557 245.988 6.48483C243.575 4.09089 240.316 2.73525 236.91 2.70889H229.722V28.3525H236.91C238.626 28.3522 240.324 28.0041 241.901 27.3292C243.431 26.6798 244.824 25.7495 246.009 24.5868C247.182 23.4117 248.117 22.0219 248.761 20.4936C249.434 18.929 249.776 17.2431 249.767 15.5409Z" fill="#7F7774" stroke="#7F7774" stroke-width="0.5" stroke-miterlimit="10"/>
</svg>
